<?xml version="1.0" ?><svg fill="none" height="96" viewBox="0 0 96 96" width="96" xmlns="http://www.w3.org/2000/svg"><path clip-rule="evenodd" d="M32.7553 10.6055C33.2493 11.5935 32.8489 12.7948 31.8609 13.2888C29.2275 14.6055 23.0741 20.7381 25.8315 34.5252C26.418 37.458 28.5642 40.3241 31.2116 42.7591C33.826 45.1639 36.6773 46.9175 38.2225 47.6635C39.2172 48.1437 39.6343 49.3394 39.1541 50.3341C38.6739 51.3288 37.4782 51.7459 36.4835 51.2657C34.5989 50.3559 31.4184 48.384 28.5037 45.7032C25.622 43.0526 22.7418 39.473 21.9091 35.3096C18.8477 20.0023 25.6093 11.9425 30.0721 9.7111C31.06 9.21712 32.2614 9.61756 32.7553 10.6055Z" fill="#DA844B" fill-rule="evenodd"/><path clip-rule="evenodd" d="M32.8609 11.0528C33.1079 11.5467 32.9077 12.1474 32.4137 12.3944C29.3229 13.9398 23.0175 20.5542 25.8509 34.7213C26.499 37.9618 28.8287 41.0062 31.5346 43.4952C34.2241 45.9689 37.1577 47.7771 38.7877 48.5641C39.2851 48.8042 39.4936 49.402 39.2535 49.8994C39.0134 50.3967 38.4156 50.6053 37.9182 50.3652C36.1185 49.4963 33.0203 47.579 30.1807 44.9672C27.3576 42.3705 24.6608 38.9692 23.8897 35.1135C20.9043 20.1862 27.5139 12.6083 31.5193 10.6055C32.0132 10.3586 32.6139 10.5588 32.8609 11.0528Z" fill="#BD6B34" fill-rule="evenodd"/><path clip-rule="evenodd" d="M13.114 38.5096C13.4816 37.468 14.624 36.9216 15.6656 37.2892C16.4981 37.583 18.0721 37.9712 19.8872 38.0838C21.7102 38.1969 23.6135 38.0217 25.2113 37.3369C26.2265 36.9018 27.4023 37.3721 27.8374 38.3874C28.2725 39.4026 27.8022 40.5784 26.7869 41.0135C24.4109 42.0318 21.8199 42.2114 19.6395 42.0762C17.4511 41.9404 15.5125 41.477 14.3344 41.0612C13.2928 40.6936 12.7464 39.5512 13.114 38.5096Z" fill="#DA844B" fill-rule="evenodd"/><path clip-rule="evenodd" d="M33.6346 23.0566C34.6982 23.3545 35.3191 24.4582 35.0212 25.5218C34.5545 27.1887 33.5298 29.6462 31.9042 31.6976C30.2868 33.7387 27.803 35.6911 24.4624 35.4945C23.3598 35.4297 22.5185 34.4832 22.5833 33.3806C22.6482 32.2779 23.5946 31.4366 24.6973 31.5015C26.1821 31.5888 27.5421 30.7618 28.7691 29.2134C29.9879 27.6753 30.8082 25.7332 31.1694 24.4433C31.4672 23.3796 32.5709 22.7588 33.6346 23.0566Z" fill="#DA844B" fill-rule="evenodd"/><path clip-rule="evenodd" d="M14.9771 18.7611C16.0618 18.5525 17.1102 19.2627 17.3188 20.3474C17.5759 21.6843 18.2533 23.7136 19.3865 25.3541C20.5166 26.9901 21.8763 27.9502 23.5154 27.9502C24.62 27.9502 25.5154 28.8456 25.5154 29.9502C25.5154 31.0547 24.62 31.9502 23.5154 31.9502C20.0453 31.9502 17.6204 29.8352 16.0953 27.6275C14.5733 25.4241 13.725 22.8409 13.3908 21.1028C13.1822 20.0181 13.8924 18.9697 14.9771 18.7611Z" fill="#DA844B" fill-rule="evenodd"/><path clip-rule="evenodd" d="M31.5739 17.8004C32.4051 18.5278 32.4894 19.7913 31.762 20.6226C31.1997 21.2652 30.2338 22.1109 29.0163 22.7684C27.7967 23.4271 26.1704 23.9783 24.359 23.777C23.2612 23.655 22.4701 22.6662 22.5921 21.5684C22.7141 20.4706 23.7029 19.6795 24.8008 19.8015C25.544 19.8841 26.3423 19.6665 27.1155 19.2489C27.8908 18.8302 28.4861 18.2921 28.7517 17.9886C29.4791 17.1573 30.7426 17.0731 31.5739 17.8004Z" fill="#DA844B" fill-rule="evenodd"/><path clip-rule="evenodd" d="M21.5154 11.9192C22.62 11.9192 23.5154 12.8146 23.5154 13.9192C23.5154 14.3112 23.5716 15.0208 23.743 15.7276C23.9274 16.4882 24.1726 16.9412 24.3489 17.1175C25.1299 17.8986 25.1299 19.1649 24.3489 19.9459C23.5678 20.727 22.3015 20.727 21.5205 19.9459C20.5614 18.9869 20.097 17.6657 19.8556 16.67C19.6012 15.6206 19.5154 14.5916 19.5154 13.9192C19.5154 12.8146 20.4109 11.9192 21.5154 11.9192Z" fill="#DA844B" fill-rule="evenodd"/><path clip-rule="evenodd" d="M26.0921 15.1158C26.5804 15.3737 26.7672 15.9788 26.5092 16.4671C25.4005 18.5657 23.0063 24.2739 23.6834 31.7219C23.7334 32.2719 23.3281 32.7583 22.778 32.8083C22.228 32.8584 21.7416 32.453 21.6916 31.903C20.9687 23.951 23.5162 17.8508 24.7408 15.5328C24.9988 15.0445 25.6038 14.8578 26.0921 15.1158Z" fill="#FAA973" fill-rule="evenodd"/><path clip-rule="evenodd" d="M62.1748 10.6055C61.6808 11.5935 62.0812 12.7948 63.0692 13.2888C65.7026 14.6055 71.856 20.7381 69.0987 34.5252C68.5121 37.458 66.3659 40.3241 63.7185 42.7591C61.1041 45.1639 58.2528 46.9175 56.7076 47.6635C55.7129 48.1437 55.2958 49.3394 55.776 50.3341C56.2562 51.3288 57.4519 51.7459 58.4466 51.2657C60.3312 50.3559 63.5117 48.384 66.4264 45.7032C69.3081 43.0526 72.1883 39.473 73.021 35.3096C76.0824 20.0023 69.3208 11.9425 64.8581 9.7111C63.8701 9.21712 62.6687 9.61756 62.1748 10.6055Z" fill="#DA844B" fill-rule="evenodd"/><path clip-rule="evenodd" d="M64.0692 11.0528C63.8222 11.5467 64.0224 12.1474 64.5164 12.3944C67.6072 13.9398 73.9126 20.5542 71.0792 34.7213C70.4311 37.9618 68.1014 41.0062 65.3955 43.4952C62.706 45.9689 59.7724 47.7771 58.1423 48.5641C57.645 48.8042 57.4364 49.402 57.6765 49.8994C57.9166 50.3967 58.5145 50.6053 59.0118 50.3652C60.8116 49.4963 63.9098 47.579 66.7494 44.9672C69.5725 42.3705 72.2693 38.9692 73.0404 35.1135C76.0258 20.1862 69.4162 12.6083 65.4108 10.6055C64.9168 10.3586 64.3162 10.5588 64.0692 11.0528Z" fill="#BD6B34" fill-rule="evenodd"/><path clip-rule="evenodd" d="M81.8161 38.5095C81.4484 37.4679 80.306 36.9215 79.2644 37.2891C78.432 37.5829 76.858 37.9711 75.0429 38.0837C73.2199 38.1968 71.3166 38.0216 69.7188 37.3368C68.7036 36.9017 67.5278 37.372 67.0927 38.3873C66.6576 39.4025 67.1279 40.5783 68.1431 41.0134C70.5192 42.0317 73.1102 42.2113 75.2906 42.076C77.479 41.9403 79.4176 41.4769 80.5957 41.0611C81.6373 40.6935 82.1837 39.5511 81.8161 38.5095Z" fill="#DA844B" fill-rule="evenodd"/><path clip-rule="evenodd" d="M61.2955 23.0568C60.2319 23.3546 59.611 24.4583 59.9089 25.5219C60.3756 27.1888 61.4003 29.6463 63.0259 31.6978C64.6433 33.7388 67.1271 35.6912 70.4677 35.4947C71.5703 35.4298 72.4116 34.4833 72.3468 33.3807C72.2819 32.278 71.3354 31.4367 70.2328 31.5016C68.748 31.5889 67.388 30.762 66.1609 29.2135C64.9422 27.6754 64.1219 25.7333 63.7607 24.4434C63.4629 23.3798 62.3592 22.7589 61.2955 23.0568Z" fill="#DA844B" fill-rule="evenodd"/><path clip-rule="evenodd" d="M79.953 18.7611C78.8683 18.5525 77.8199 19.2627 77.6113 20.3474C77.3542 21.6843 76.6768 23.7136 75.5436 25.3541C74.4135 26.9901 73.0538 27.9502 71.4147 27.9502C70.3101 27.9502 69.4147 28.8456 69.4147 29.9502C69.4147 31.0547 70.3101 31.9502 71.4147 31.9502C74.8848 31.9502 77.3097 29.8352 78.8348 27.6275C80.3568 25.4241 81.205 22.8409 81.5393 21.1028C81.7479 20.0181 81.0377 18.9697 79.953 18.7611Z" fill="#DA844B" fill-rule="evenodd"/><path clip-rule="evenodd" d="M63.3562 16.8004C62.525 17.5278 62.4407 18.7913 63.1681 19.6226C63.7304 20.2652 64.6963 21.1109 65.9138 21.7684C67.1334 22.4271 68.7597 22.9783 70.5711 22.777C71.6689 22.655 72.4599 21.6662 72.338 20.5684C72.216 19.4706 71.2271 18.6795 70.1293 18.8015C69.3861 18.8841 68.5878 18.6665 67.8146 18.2489C67.0393 17.8302 66.444 17.2921 66.1784 16.9886C65.451 16.1573 64.1875 16.0731 63.3562 16.8004Z" fill="#DA844B" fill-rule="evenodd"/><path clip-rule="evenodd" d="M72.4146 10.9192C71.3101 10.9192 70.4146 11.8146 70.4146 12.9192C70.4146 13.3112 70.3585 14.0208 70.1871 14.7276C70.0027 15.4882 69.7575 15.9412 69.5812 16.1175C68.8001 16.8986 68.8001 18.1649 69.5812 18.9459C70.3622 19.727 71.6286 19.727 72.4096 18.9459C73.3687 17.9869 73.8331 16.6657 74.0745 15.67C74.3289 14.6206 74.4146 13.5916 74.4146 12.9192C74.4146 11.8146 73.5192 10.9192 72.4146 10.9192Z" fill="#DA844B" fill-rule="evenodd"/><path d="M17.4837 49.1096C25.1476 44.0003 33.4501 47.4538 36.6434 49.8192C39.4819 52.0899 38.7723 54.55 38.0626 55.4962C28.128 58.3347 20.2039 52.4212 17.4837 49.1096Z" fill="#944F21"/><path clip-rule="evenodd" d="M37.8637 48.2342L37.8928 48.2575C39.6782 49.6858 40.5334 51.3457 40.676 52.9807C40.8119 54.5392 40.2809 55.8719 39.6627 56.6962L39.259 57.2344L38.6121 57.4193C27.6156 60.5611 18.9351 54.0274 15.9382 50.3791L14.5355 48.6713L16.3743 47.4455C25.0496 41.6619 34.3204 45.6095 37.8339 48.2121L37.8637 48.2342ZM17.4837 49.1096C17.8557 49.5624 18.3249 50.0639 18.8834 50.5851C22.4087 53.8748 29.4865 57.9465 38.0626 55.4962C38.7723 54.55 39.4819 52.0899 36.6434 49.8192C33.6928 47.6336 26.3802 44.519 19.2398 48.0887C18.6524 48.3824 18.0662 48.7212 17.4837 49.1096Z" fill="#652E0A" fill-rule="evenodd"/><path d="M57.5772 49.4646C65.5249 42.3684 76.2638 46.5078 80.6398 49.4646C80.0485 50.7655 77.4465 53.8642 71.7696 55.8511C66.0926 57.8381 59.9426 55.7328 57.5772 54.4319V49.4646Z" fill="#944F21"/><path clip-rule="evenodd" d="M83.1599 48.7535L82.4605 50.2921C81.5874 52.2131 78.4789 55.6217 72.4303 57.7388C69.1768 58.8775 65.8552 58.8241 63.0901 58.345C60.3306 57.8669 57.9912 56.9421 56.6133 56.1843L55.5772 55.6144V48.569L56.2451 47.9726C60.7554 43.9456 66.0537 43.1416 70.691 43.7095C75.2818 44.2717 79.3561 46.1834 81.7595 47.8073L83.1599 48.7535ZM79.7035 50.8502C80.1754 50.2958 80.4805 49.8149 80.6398 49.4645C76.2638 46.5078 65.5249 42.3683 57.5772 49.4645V54.4318C59.9426 55.7328 66.0926 57.838 71.7696 55.8511C75.6935 54.4777 78.1483 52.5732 79.4854 51.0983C79.5618 51.0142 79.6344 50.9314 79.7035 50.8502Z" fill="#652E0A" fill-rule="evenodd"/><path clip-rule="evenodd" d="M75.576 50.4677C75.6 49.916 75.1721 49.4492 74.6204 49.4252C73.0917 49.3587 70.6307 49.3997 68.166 49.7373C65.7469 50.0687 63.1324 50.7091 61.4509 51.961C61.0079 52.2908 60.9162 52.9173 61.246 53.3603C61.5758 53.8033 62.2023 53.895 62.6453 53.5652C63.8914 52.6374 66.0631 52.0441 68.4374 51.7188C70.7661 51.3998 73.1057 51.3612 74.5334 51.4233C75.0852 51.4473 75.552 51.0195 75.576 50.4677Z" fill="#BD6B34" fill-rule="evenodd"/><path clip-rule="evenodd" d="M22.4519 49.956C22.5452 49.4116 23.0621 49.046 23.6065 49.1393C25.1146 49.3978 27.5112 49.9587 29.8486 50.8103C32.1427 51.6462 34.5625 52.8254 35.9409 54.4049C36.3041 54.821 36.2611 55.4527 35.845 55.8158C35.4289 56.179 34.7972 56.1361 34.4341 55.72C33.4125 54.5494 31.4156 53.5099 29.1639 52.6895C26.9555 51.8849 24.6771 51.352 23.2685 51.1105C22.7242 51.0172 22.3586 50.5003 22.4519 49.956Z" fill="#BD6B34" fill-rule="evenodd"/><path d="M49.4165 39.8848C29.961 39.8848 30.6116 62.7109 33.4501 69.334C43.03 70.7532 62.5445 72.953 63.9637 70.3984C65.7378 67.2051 71.4147 39.8848 49.4165 39.8848Z" fill="#B3642F"/><path clip-rule="evenodd" d="M32.0519 71.1487L31.6118 70.1218C30.7791 68.1789 30.1776 65.2579 30.014 62.04C29.849 58.7955 30.1205 55.09 31.1537 51.5634C32.1873 48.0357 34.0119 44.5959 37.017 42.0331C40.0506 39.4459 44.1338 37.8848 49.4165 37.8848C55.3639 37.8848 59.6844 39.7493 62.6549 42.8107C65.5776 45.8231 66.9902 49.785 67.5816 53.6409C68.1745 57.5066 67.969 61.4292 67.5118 64.5714C67.2823 66.1487 66.9857 67.5549 66.6821 68.6881C66.3923 69.7696 66.0592 70.7448 65.712 71.3697C65.3759 71.9747 64.8696 72.3461 64.4628 72.5718C64.0443 72.8041 63.5858 72.9627 63.1483 73.0782C62.274 73.3088 61.2072 73.4372 60.0643 73.5058C57.7602 73.6442 54.7904 73.5579 51.6369 73.3521C45.3102 72.9393 37.9785 72.0267 33.157 71.3124L32.0519 71.1487ZM33.4501 69.334C30.6116 62.7109 29.961 39.8848 49.4165 39.8848C71.4147 39.8848 65.7378 67.2051 63.9637 70.3984C62.5445 72.953 43.03 70.7532 33.4501 69.334Z" fill="#7A3C12" fill-rule="evenodd"/><path clip-rule="evenodd" d="M33.2636 68.867C43.4369 70.2113 58.7141 71.6478 59.9637 69.3985C61.5149 66.6063 66.0501 45.3679 52.459 40.0762C70.8669 42.5082 65.6507 67.3619 63.9637 70.3985C62.5445 72.9531 43.0299 70.7533 33.4501 69.3341C33.3868 69.1863 33.3245 69.0305 33.2636 68.867Z" fill="#A75822" fill-rule="evenodd"/><path clip-rule="evenodd" d="M42.575 43.4125C43.0721 44.0752 42.9377 45.0154 42.275 45.5125C40.8446 46.5852 37.4889 50.2068 36.4728 55.4717C36.3159 56.2851 35.5292 56.8173 34.7158 56.6603C33.9024 56.5033 33.3702 55.7167 33.5272 54.9032C34.7111 48.7681 38.572 44.5397 40.475 43.1125C41.1377 42.6154 42.0779 42.7497 42.575 43.4125Z" fill="#CB7941" fill-rule="evenodd"/><path d="M47.6425 53.3677C47.6425 55.3272 46.3717 56.9158 44.804 56.9158C43.2364 56.9158 41.9655 55.3272 41.9655 53.3677C41.9655 51.4081 43.2364 49.8196 44.804 49.8196C46.3717 49.8196 47.6425 51.4081 47.6425 53.3677Z" fill="#6B310A"/><path d="M56.8675 53.3677C56.8675 55.3272 55.5967 56.9158 54.0291 56.9158C52.4614 56.9158 51.1906 55.3272 51.1906 53.3677C51.1906 51.4081 52.4614 49.8196 54.0291 49.8196C55.5967 49.8196 56.8675 51.4081 56.8675 53.3677Z" fill="#6B310A"/><path d="M32.0852 63.657C37.7622 58.2639 44.1488 61.4099 46.6324 63.657H56.5671C69.6951 57.6253 73.2432 67.9147 66.5018 77.8494C59.7604 87.784 44.5036 87.0744 38.4718 83.8811C32.44 80.6878 24.989 70.3984 32.0852 63.657Z" fill="#FFEFB9"/><path clip-rule="evenodd" d="M46.6324 63.6569H56.5671C69.6951 57.6252 73.2432 67.9146 66.5018 77.8493C59.7604 87.784 44.5036 87.0743 38.4718 83.881C32.44 80.6878 24.989 70.3983 32.0852 63.6569C37.7622 58.2638 44.1488 61.4098 46.6324 63.6569ZM56.1374 61.6569H47.3604C45.8393 60.4607 43.5411 59.2179 40.8536 58.8141C37.6729 58.3361 34.0258 59.0548 30.7077 62.2069C28.596 64.213 27.5078 66.5575 27.2521 69.004C27.0006 71.4102 27.5651 73.7889 28.5341 75.9255C30.4495 80.1492 34.1349 83.848 37.536 85.6486C40.9893 87.4768 46.7417 88.4769 52.4648 87.7732C58.2273 87.0647 64.3552 84.5746 68.1567 78.9723C69.9718 76.2974 71.1398 73.5342 71.6077 70.9484C72.0721 68.3816 71.8664 65.851 70.7374 63.8009C69.567 61.6757 67.5263 60.2983 64.8656 59.9497C62.3867 59.625 59.4489 60.1941 56.1374 61.6569Z" fill="#CBB56B" fill-rule="evenodd"/><path clip-rule="evenodd" d="M34.8094 63.7709C35.2121 64.1489 35.2321 64.7818 34.8541 65.1844C34.0694 66.0203 33.1456 67.746 33.1811 70.0879C33.2163 72.4046 34.1938 75.4159 37.3574 78.8192C37.7335 79.2237 37.7104 79.8564 37.3059 80.2324C36.9013 80.6085 36.2686 80.5854 35.8926 80.1808C32.4562 76.4842 31.2254 73.0163 31.1814 70.1183C31.1378 67.2457 32.264 65.0214 33.3959 63.8156C33.7739 63.4129 34.4068 63.3929 34.8094 63.7709Z" fill="#FFF7DD" fill-rule="evenodd"/><path clip-rule="evenodd" d="M37.7362 83.4608C37.983 83.612 38.2286 83.7523 38.4718 83.8811C44.5036 87.0744 59.7604 87.784 66.5018 77.8493C71.2694 70.8234 70.8907 63.62 65.6167 62.1377C68.8913 64.7246 68.5717 70.8517 64.5018 76.8495C58.1911 86.1495 44.4182 86.1218 37.7362 83.4608ZM45.3286 62.6572C44.6635 62.2199 43.8825 61.7992 43.0167 61.459C43.6561 61.8527 44.2027 62.2684 44.6324 62.6572H45.3286Z" fill="#F1DE9D" fill-rule="evenodd"/><path d="M59.706 67.2051C59.706 72.104 54.9404 77.4945 49.0617 77.4945C43.183 77.4945 38.4174 72.104 38.4174 67.2051C38.4174 62.3062 43.183 59.0444 49.0617 59.0444C54.9404 59.0444 59.706 62.3062 59.706 67.2051Z" fill="#D94A1D"/><path clip-rule="evenodd" d="M58.0148 75.5888C55.779 77.8638 52.6254 79.4945 49.0617 79.4945C45.4981 79.4945 42.3445 77.8638 40.1086 75.5888C37.8892 73.3305 36.4174 70.2763 36.4174 67.2051C36.4174 64.0357 37.9826 61.4313 40.3441 59.6809C42.6739 57.954 45.7732 57.0444 49.0617 57.0444C52.3502 57.0444 55.4496 57.954 57.7793 59.6809C60.1408 61.4313 61.706 64.0357 61.706 67.2051C61.706 70.2763 60.2342 73.3305 58.0148 75.5888ZM49.0617 77.4945C54.9404 77.4945 59.706 72.104 59.706 67.2051C59.706 62.3062 54.9404 59.0444 49.0617 59.0444C43.183 59.0444 38.4174 62.3062 38.4174 67.2051C38.4174 72.104 43.183 77.4945 49.0617 77.4945Z" fill="#953416" fill-rule="evenodd"/><path d="M50.5719 63.6216C51.1551 65.7345 49.6453 67.9945 47.1996 68.6695C44.754 69.3445 42.2987 68.1788 41.7156 66.0659C41.1324 63.9531 42.6422 61.6931 45.0879 61.0181C47.5335 60.3431 49.9888 61.5087 50.5719 63.6216Z" fill="#EC683E"/><path clip-rule="evenodd" d="M46.8232 62.1196C47.1368 62.5743 47.0224 63.197 46.5678 63.5106C46.3034 63.6929 45.6556 64.2002 45.237 64.7025C44.8834 65.1268 44.2529 65.1841 43.8286 64.8306C43.4043 64.477 43.347 63.8464 43.7006 63.4222C44.2819 62.7245 45.0925 62.0985 45.4323 61.8641C45.8869 61.5506 46.5097 61.665 46.8232 62.1196Z" fill="#FFF8F8" fill-rule="evenodd"/><path d="M44.2685 52.4356C44.2685 51.9208 43.9442 51.5035 43.5441 51.5035C43.144 51.5035 42.8197 51.9208 42.8197 52.4356C42.8197 52.9504 43.144 53.3677 43.5441 53.3677C43.9442 53.3677 44.2685 52.9504 44.2685 52.4356Z" fill="#F3BC96"/><path d="M53.788 52.2869C53.788 51.7721 53.4636 51.3548 53.0636 51.3548C52.6635 51.3548 52.3392 51.7721 52.3392 52.2869C52.3392 52.8017 52.6635 53.219 53.0636 53.219C53.4636 53.219 53.788 52.8017 53.788 52.2869Z" fill="#F3BC96"/><path d="M64.0625 78.75C64.0625 79.1642 63.6847 79.5 63.2188 79.5C62.7528 79.5 62.375 79.1642 62.375 78.75C62.375 78.3358 62.7528 78 63.2188 78C63.6847 78 64.0625 78.3358 64.0625 78.75Z" fill="#DEC674"/><path d="M60.2609 78.2446C60.2609 78.6588 59.8832 78.9946 59.4172 78.9946C58.9512 78.9946 58.5734 78.6588 58.5734 78.2446C58.5734 77.8304 58.9512 77.4946 59.4172 77.4946C59.8832 77.4946 60.2609 77.8304 60.2609 78.2446Z" fill="#DEC674"/><path d="M58.5734 82.7192C58.5734 83.1335 58.1957 83.4692 57.7297 83.4692C57.2637 83.4692 56.8859 83.1335 56.8859 82.7192C56.8859 82.305 57.2637 81.9692 57.7297 81.9692C58.1957 81.9692 58.5734 82.305 58.5734 82.7192Z" fill="#DEC674"/><path d="M63.8518 72.868C63.8518 73.1256 63.6169 73.3345 63.3271 73.3345C63.0373 73.3345 62.8024 73.1256 62.8024 72.868C62.8024 72.6104 63.0373 72.4016 63.3271 72.4016C63.6169 72.4016 63.8518 72.6104 63.8518 72.868Z" fill="#DEC674"/><path d="M69.1034 68.5507C69.1034 68.8083 68.8684 69.0171 68.5786 69.0171C68.2888 69.0171 68.0539 68.8083 68.0539 68.5507C68.0539 68.2931 68.2888 68.0842 68.5786 68.0842C68.8684 68.0842 69.1034 68.2931 69.1034 68.5507Z" fill="#DEC674"/><path d="M65.9472 70.5524C65.9472 70.81 65.7122 71.0188 65.4224 71.0188C65.1326 71.0188 64.8977 70.81 64.8977 70.5524C64.8977 70.2948 65.1326 70.0859 65.4224 70.0859C65.7122 70.0859 65.9472 70.2948 65.9472 70.5524Z" fill="#DEC674"/><path d="M58.2544 80.3937C58.2544 80.6513 58.0195 80.8601 57.7297 80.8601C57.4399 80.8601 57.205 80.6513 57.205 80.3937C57.205 80.1361 57.4399 79.9272 57.7297 79.9272C58.0195 79.9272 58.2544 80.1361 58.2544 80.3937Z" fill="#DEC674"/><path d="M55.7232 83.7374C55.7232 83.995 55.4882 84.2039 55.1984 84.2039C54.9086 84.2039 54.6737 83.995 54.6737 83.7374C54.6737 83.4798 54.9086 83.271 55.1984 83.271C55.4882 83.271 55.7232 83.4798 55.7232 83.7374Z" fill="#DEC674"/><path d="M65.9471 74.4795C65.9471 74.8937 65.5694 75.2295 65.1034 75.2295C64.6374 75.2295 64.2596 74.8937 64.2596 74.4795C64.2596 74.0653 64.6374 73.7295 65.1034 73.7295C65.5694 73.7295 65.9471 74.0653 65.9471 74.4795Z" fill="#DEC674"/><path d="M62.9849 75.7086C62.9849 76.2725 62.4706 76.7296 61.8362 76.7296C61.2018 76.7296 60.6875 76.2725 60.6875 75.7086C60.6875 75.1446 61.2018 74.6875 61.8362 74.6875C62.4706 74.6875 62.9849 75.1446 62.9849 75.7086Z" fill="#DEC674"/><path d="M68.5786 71.5733C68.5786 72.1372 68.0643 72.5943 67.4299 72.5943C66.7955 72.5943 66.2812 72.1372 66.2812 71.5733C66.2812 71.0094 66.7955 70.5522 67.4299 70.5522C68.0643 70.5522 68.5786 71.0094 68.5786 71.5733Z" fill="#DEC674"/><path d="M62.0034 80.9483C62.0034 81.5122 61.4891 81.9693 60.8547 81.9693C60.2203 81.9693 59.706 81.5122 59.706 80.9483C59.706 80.3844 60.2203 79.9272 60.8547 79.9272C61.4891 79.9272 62.0034 80.3844 62.0034 80.9483Z" fill="#DEC674"/></svg>